<svg width="48" height="48" viewBox="0 0 48 48" fill="none" xmlns="http://www.w3.org/2000/svg">
<g clip-path="url(#clip0_134_10)">
<g filter="url(#filter0_d_134_10)">
<path d="M21.75 22.5C21.75 22.055 21.882 21.62 22.1292 21.25C22.3764 20.88 22.7278 20.5916 23.139 20.4213C23.5501 20.251 24.0025 20.2064 24.439 20.2932C24.8754 20.38 25.2763 20.5943 25.591 20.909C25.9057 21.2237 26.12 21.6246 26.2068 22.061C26.2936 22.4975 26.249 22.9499 26.0787 23.361C25.9084 23.7722 25.62 24.1236 25.25 24.3708C24.88 24.618 24.445 24.75 24 24.75C23.4033 24.75 22.831 24.5129 22.409 24.091C21.9871 23.669 21.75 23.0967 21.75 22.5ZM15.75 24.75C16.195 24.75 16.63 24.618 17 24.3708C17.37 24.1236 17.6584 23.7722 17.8287 23.361C17.999 22.9499 18.0436 22.4975 17.9568 22.061C17.87 21.6246 17.6557 21.2237 17.341 20.909C17.0263 20.5943 16.6254 20.38 16.189 20.2932C15.7525 20.2064 15.3001 20.251 14.889 20.4213C14.4778 20.5916 14.1264 20.88 13.8792 21.25C13.632 21.62 13.5 22.055 13.5 22.5C13.5 23.0967 13.7371 23.669 14.159 24.091C14.581 24.5129 15.1533 24.75 15.75 24.75ZM32.25 24.75C32.695 24.75 33.13 24.618 33.5 24.3708C33.87 24.1236 34.1584 23.7722 34.3287 23.361C34.499 22.9499 34.5436 22.4975 34.4568 22.061C34.37 21.6246 34.1557 21.2237 33.841 20.909C33.5263 20.5943 33.1254 20.38 32.689 20.2932C32.2525 20.2064 31.8001 20.251 31.389 20.4213C30.9778 20.5916 30.6264 20.88 30.3792 21.25C30.132 21.62 30 22.055 30 22.5C30 23.0967 30.2371 23.669 30.659 24.091C31.081 24.5129 31.6533 24.75 32.25 24.75ZM43.5 10.5V34.5C43.5 35.2956 43.1839 36.0587 42.6213 36.6213C42.0587 37.1839 41.2956 37.5 40.5 37.5H29.1694L26.6044 41.9888C26.3419 42.4478 25.9628 42.8293 25.5055 43.0946C25.0481 43.36 24.5288 43.4997 24 43.4997C23.4712 43.4997 22.9519 43.36 22.4945 43.0946C22.0372 42.8293 21.6581 42.4478 21.3956 41.9888L18.8306 37.5H7.5C6.70435 37.5 5.94129 37.1839 5.37868 36.6213C4.81607 36.0587 4.5 35.2956 4.5 34.5V10.5C4.5 9.70435 4.81607 8.94129 5.37868 8.37868C5.94129 7.81607 6.70435 7.5 7.5 7.5H40.5C41.2956 7.5 42.0587 7.81607 42.6213 8.37868C43.1839 8.94129 43.5 9.70435 43.5 10.5ZM40.5 10.5H7.5V34.5H19.7006C19.9662 34.4976 20.2277 34.5658 20.4583 34.6976C20.6889 34.8293 20.8803 35.02 21.0131 35.25L24.0131 40.5L27.0131 35.25C27.1459 35.02 27.3374 34.8293 27.568 34.6976C27.7986 34.5658 28.06 34.4976 28.3256 34.5H40.5V10.5Z" fill="#FB923C"/>
<path d="M27.0384 42.2369L27.0385 42.2368L29.4595 38H40.5C41.4283 38 42.3185 37.6313 42.9749 36.9749C43.6312 36.3185 44 35.4283 44 34.5V10.5C44 9.57174 43.6312 8.6815 42.9749 8.02513C42.3185 7.36875 41.4283 7 40.5 7H7.5C6.57174 7 5.6815 7.36875 5.02513 8.02513C4.36875 8.6815 4 9.57174 4 10.5V34.5C4 35.4283 4.36875 36.3185 5.02513 36.9749C5.6815 37.6313 6.57174 38 7.5 38H18.5405L20.9615 42.2368L20.9616 42.2369C21.2677 42.7725 21.71 43.2175 22.2436 43.5271C22.7772 43.8367 23.3831 43.9997 24 43.9997C24.6169 43.9997 25.2228 43.8367 25.7564 43.5271C26.29 43.2175 26.7323 42.7725 27.0384 42.2369ZM24.0131 39.4922L21.4473 35.0019L21.4461 35C21.2691 34.6933 21.0138 34.4391 20.7063 34.2635C20.3996 34.0882 20.0519 33.9973 19.6987 34H8V11H40V34H28.3276C27.9743 33.9973 27.6267 34.0882 27.3199 34.2635C27.0125 34.4391 26.7572 34.6933 26.5801 35L26.579 35.0019L24.0131 39.4922ZM21.7135 20.9722C21.4113 21.4244 21.25 21.9561 21.25 22.5C21.25 23.2293 21.5397 23.9288 22.0555 24.4445C22.5712 24.9603 23.2707 25.25 24 25.25C24.5439 25.25 25.0756 25.0887 25.5278 24.7865C25.9801 24.4844 26.3325 24.0549 26.5407 23.5524C26.7488 23.0499 26.8033 22.497 26.6972 21.9635C26.5911 21.4301 26.3291 20.9401 25.9445 20.5555C25.5599 20.1709 25.0699 19.9089 24.5365 19.8028C24.003 19.6967 23.4501 19.7512 22.9476 19.9593C22.4451 20.1675 22.0156 20.5199 21.7135 20.9722ZM15.75 25.25C16.2939 25.25 16.8256 25.0887 17.2778 24.7865C17.7301 24.4844 18.0825 24.0549 18.2907 23.5524C18.4988 23.0499 18.5533 22.4969 18.4472 21.9635C18.3411 21.4301 18.0791 20.9401 17.6945 20.5555C17.3099 20.1709 16.8199 19.9089 16.2865 19.8028C15.7531 19.6967 15.2001 19.7512 14.6976 19.9593C14.1951 20.1675 13.7656 20.5199 13.4635 20.9722C13.1613 21.4244 13 21.9561 13 22.5C13 23.2293 13.2897 23.9288 13.8055 24.4445C14.3212 24.9603 15.0207 25.25 15.75 25.25ZM32.25 25.25C32.7939 25.25 33.3256 25.0887 33.7778 24.7865C34.2301 24.4844 34.5825 24.0549 34.7907 23.5524C34.9988 23.0499 35.0533 22.497 34.9472 21.9635C34.8411 21.4301 34.5791 20.9401 34.1945 20.5555C33.8099 20.1709 33.3199 19.9089 32.7865 19.8028C32.253 19.6967 31.7001 19.7512 31.1976 19.9593C30.6951 20.1675 30.2656 20.5199 29.9635 20.9722C29.6613 21.4244 29.5 21.9561 29.5 22.5C29.5 23.2293 29.7897 23.9288 30.3055 24.4445C30.8212 24.9603 31.5207 25.25 32.25 25.25Z" stroke="#5C1F06"/>
</g>
</g>
<defs>
<filter id="filter0_d_134_10" x="1.5" y="6.5" width="45" height="43.9997" filterUnits="userSpaceOnUse" color-interpolation-filters="sRGB">
<feFlood flood-opacity="0" result="BackgroundImageFix"/>
<feColorMatrix in="SourceAlpha" type="matrix" values="0 0 0 0 0 0 0 0 0 0 0 0 0 0 0 0 0 0 127 0" result="hardAlpha"/>
<feOffset dy="4"/>
<feGaussianBlur stdDeviation="1"/>
<feComposite in2="hardAlpha" operator="out"/>
<feColorMatrix type="matrix" values="0 0 0 0 0 0 0 0 0 0 0 0 0 0 0 0 0 0 1 0"/>
<feBlend mode="normal" in2="BackgroundImageFix" result="effect1_dropShadow_134_10"/>
<feBlend mode="normal" in="SourceGraphic" in2="effect1_dropShadow_134_10" result="shape"/>
</filter>
<clipPath id="clip0_134_10">
<rect width="48" height="48" fill="white"/>
</clipPath>
</defs>
</svg>
