<svg width="48" height="48" viewBox="0 0 48 48" fill="none" xmlns="http://www.w3.org/2000/svg">
<g clip-path="url(#clip0_134_141)">
<g filter="url(#filter0_d_134_141)">
<path d="M15 10.5V4.5C15 4.10218 15.158 3.72064 15.4393 3.43934C15.7206 3.15804 16.1022 3 16.5 3C16.8978 3 17.2794 3.15804 17.5607 3.43934C17.842 3.72064 18 4.10218 18 4.5V10.5C18 10.8978 17.842 11.2794 17.5607 11.5607C17.2794 11.842 16.8978 12 16.5 12C16.1022 12 15.7206 11.842 15.4393 11.5607C15.158 11.2794 15 10.8978 15 10.5ZM22.5 12C22.8978 12 23.2794 11.842 23.5607 11.5607C23.842 11.2794 24 10.8978 24 10.5V4.5C24 4.10218 23.842 3.72064 23.5607 3.43934C23.2794 3.15804 22.8978 3 22.5 3C22.1022 3 21.7206 3.15804 21.4393 3.43934C21.158 3.72064 21 4.10218 21 4.5V10.5C21 10.8978 21.158 11.2794 21.4393 11.5607C21.7206 11.842 22.1022 12 22.5 12ZM28.5 12C28.8978 12 29.2794 11.842 29.5607 11.5607C29.842 11.2794 30 10.8978 30 10.5V4.5C30 4.10218 29.842 3.72064 29.5607 3.43934C29.2794 3.15804 28.8978 3 28.5 3C28.1022 3 27.7206 3.15804 27.4393 3.43934C27.158 3.72064 27 4.10218 27 4.5V10.5C27 10.8978 27.158 11.2794 27.4393 11.5607C27.7206 11.842 28.1022 12 28.5 12ZM46.5 22.5V24C46.4994 25.9079 45.7717 27.7439 44.4651 29.1341C43.1584 30.5243 41.3711 31.3644 39.4669 31.4831C38.4437 34.3773 36.7017 36.9639 34.4044 39H39C39.3978 39 39.7794 39.158 40.0607 39.4393C40.342 39.7206 40.5 40.1022 40.5 40.5C40.5 40.8978 40.342 41.2794 40.0607 41.5607C39.7794 41.842 39.3978 42 39 42H6C5.60218 42 5.22064 41.842 4.93934 41.5607C4.65804 41.2794 4.5 40.8978 4.5 40.5C4.5 40.1022 4.65804 39.7206 4.93934 39.4393C5.22064 39.158 5.60218 39 6 39H10.6013C8.68744 37.3092 7.15405 35.2316 6.10233 32.9045C5.05061 30.5774 4.50448 28.0537 4.5 25.5V16.5C4.5 16.1022 4.65804 15.7206 4.93934 15.4393C5.22064 15.158 5.60218 15 6 15H39C40.9891 15 42.8968 15.7902 44.3033 17.1967C45.7098 18.6032 46.5 20.5109 46.5 22.5ZM37.5 18H7.5V25.5C7.50578 28.3164 8.3017 31.0747 9.79725 33.4612C11.2928 35.8477 13.428 37.7667 15.96 39H29.04C31.572 37.7667 33.7072 35.8477 35.2028 33.4612C36.6983 31.0747 37.4942 28.3164 37.5 25.5V18ZM43.5 22.5C43.4997 21.5697 43.2111 20.6623 42.6738 19.9027C42.1366 19.1432 41.3771 18.5689 40.5 18.2587V25.5C40.4989 26.4419 40.4236 27.3824 40.275 28.3125C41.2057 28.0375 42.0226 27.4691 42.6038 26.6919C43.185 25.9147 43.4993 24.9705 43.5 24V22.5Z" fill="#FB923C"/>
<path d="M47 24.0002V24V22.5C47 20.3783 46.1571 18.3434 44.6569 16.8431C43.1566 15.3429 41.1217 14.5 39 14.5H6C5.46957 14.5 4.96086 14.7107 4.58579 15.0858C4.21071 15.4609 4 15.9696 4 16.5L4 25.5L4 25.5009C4.00461 28.1253 4.56586 30.7189 5.64671 33.1105C6.55254 35.1148 7.80606 36.9389 9.34602 38.5H6C5.46957 38.5 4.96086 38.7107 4.58579 39.0858C4.21071 39.4609 4 39.9696 4 40.5C4 41.0304 4.21071 41.5391 4.58579 41.9142C4.96086 42.2893 5.46957 42.5 6 42.5H39C39.5304 42.5 40.0391 42.2893 40.4142 41.9142C40.7893 41.5391 41 41.0304 41 40.5C41 39.9696 40.7893 39.4609 40.4142 39.0858C40.0391 38.7107 39.5304 38.5 39 38.5H35.657C37.4892 36.6381 38.9115 34.4086 39.8275 31.9548C41.7345 31.7565 43.5113 30.879 44.8294 29.4765C46.2232 27.9936 46.9994 26.0352 47 24.0002ZM41 25.5006V25.5V19.0373C41.4978 19.3247 41.9304 19.7175 42.2656 20.1915C42.7432 20.8666 42.9997 21.6731 43 22.5C43 22.5001 43 22.5001 43 22.5002V23.9997C42.9994 24.8623 42.72 25.7016 42.2033 26.3924C41.8505 26.8642 41.4 27.2495 40.8863 27.5242C40.9612 26.8525 40.9992 26.1769 41 25.5006ZM14.5 4.5V10.5C14.5 11.0304 14.7107 11.5391 15.0858 11.9142C15.4609 12.2893 15.9696 12.5 16.5 12.5C17.0304 12.5 17.5391 12.2893 17.9142 11.9142C18.2893 11.5391 18.5 11.0304 18.5 10.5V4.5C18.5 3.96957 18.2893 3.46086 17.9142 3.08579C17.5391 2.71071 17.0304 2.5 16.5 2.5C15.9696 2.5 15.4609 2.71071 15.0858 3.08579C14.7107 3.46086 14.5 3.96957 14.5 4.5ZM22.5 12.5C23.0304 12.5 23.5391 12.2893 23.9142 11.9142C24.2893 11.5391 24.5 11.0304 24.5 10.5V4.5C24.5 3.96957 24.2893 3.46086 23.9142 3.08579C23.5391 2.71071 23.0304 2.5 22.5 2.5C21.9696 2.5 21.4609 2.71071 21.0858 3.08579C20.7107 3.46086 20.5 3.96957 20.5 4.5V10.5C20.5 11.0304 20.7107 11.5391 21.0858 11.9142C21.4609 12.2893 21.9696 12.5 22.5 12.5ZM28.5 12.5C29.0304 12.5 29.5391 12.2893 29.9142 11.9142C30.2893 11.5391 30.5 11.0304 30.5 10.5V4.5C30.5 3.96957 30.2893 3.46086 29.9142 3.08579C29.5391 2.71071 29.0304 2.5 28.5 2.5C27.9696 2.5 27.4609 2.71071 27.0858 3.08579C26.7107 3.46086 26.5 3.96957 26.5 4.5V10.5C26.5 11.0304 26.7107 11.5391 27.0858 11.9142C27.4609 12.2893 27.9696 12.5 28.5 12.5ZM8 25.4994V18.5H37V25.499C36.9944 28.2218 36.2249 30.8884 34.7791 33.1957C33.3535 35.4706 31.3267 37.3061 28.9237 38.5H16.0763C13.6733 37.3061 11.6465 35.4706 10.2209 33.1957C8.77515 30.8886 8.00568 28.2221 8 25.4994Z" stroke="#5C1F06"/>
</g>
</g>
<defs>
<filter id="filter0_d_134_141" x="1.5" y="2" width="48" height="47" filterUnits="userSpaceOnUse" color-interpolation-filters="sRGB">
<feFlood flood-opacity="0" result="BackgroundImageFix"/>
<feColorMatrix in="SourceAlpha" type="matrix" values="0 0 0 0 0 0 0 0 0 0 0 0 0 0 0 0 0 0 127 0" result="hardAlpha"/>
<feOffset dy="4"/>
<feGaussianBlur stdDeviation="1"/>
<feComposite in2="hardAlpha" operator="out"/>
<feColorMatrix type="matrix" values="0 0 0 0 0 0 0 0 0 0 0 0 0 0 0 0 0 0 1 0"/>
<feBlend mode="normal" in2="BackgroundImageFix" result="effect1_dropShadow_134_141"/>
<feBlend mode="normal" in="SourceGraphic" in2="effect1_dropShadow_134_141" result="shape"/>
</filter>
<clipPath id="clip0_134_141">
<rect width="48" height="48" fill="white"/>
</clipPath>
</defs>
</svg>
