<svg width="49" height="48" viewBox="0 0 49 48" fill="none" xmlns="http://www.w3.org/2000/svg">
<g clip-path="url(#clip0_134_76)">
<g filter="url(#filter0_d_134_76)">
<path d="M39.5 15H33.5V10.5C33.5 8.11305 32.5518 5.82387 30.864 4.13604C29.1761 2.44821 26.8869 1.5 24.5 1.5C22.1131 1.5 19.8239 2.44821 18.136 4.13604C16.4482 5.82387 15.5 8.11305 15.5 10.5V15H9.5C8.70435 15 7.94129 15.3161 7.37868 15.8787C6.81607 16.4413 6.5 17.2044 6.5 18V39C6.5 39.7956 6.81607 40.5587 7.37868 41.1213C7.94129 41.6839 8.70435 42 9.5 42H39.5C40.2956 42 41.0587 41.6839 41.6213 41.1213C42.1839 40.5587 42.5 39.7956 42.5 39V18C42.5 17.2044 42.1839 16.4413 41.6213 15.8787C41.0587 15.3161 40.2956 15 39.5 15ZM18.5 10.5C18.5 8.9087 19.1321 7.38258 20.2574 6.25736C21.3826 5.13214 22.9087 4.5 24.5 4.5C26.0913 4.5 27.6174 5.13214 28.7426 6.25736C29.8679 7.38258 30.5 8.9087 30.5 10.5V15H18.5V10.5ZM39.5 39H9.5V18H39.5V39Z" fill="#FB923C"/>
<path d="M39.5 14.5H34V10.5C34 7.98044 32.9991 5.56408 31.2175 3.78249C29.4359 2.00089 27.0196 1 24.5 1C21.9804 1 19.5641 2.00089 17.7825 3.78249C16.0009 5.56408 15 7.98044 15 10.5V14.5H9.5C8.57174 14.5 7.6815 14.8687 7.02513 15.5251C6.36875 16.1815 6 17.0717 6 18V39C6 39.9283 6.36875 40.8185 7.02513 41.4749C7.6815 42.1312 8.57174 42.5 9.5 42.5H39.5C40.4283 42.5 41.3185 42.1312 41.9749 41.4749C42.6312 40.8185 43 39.9283 43 39V18C43 17.0717 42.6312 16.1815 41.9749 15.5251C41.3185 14.8687 40.4283 14.5 39.5 14.5ZM19 10.5C19 9.04131 19.5795 7.64236 20.6109 6.61091C21.6424 5.57946 23.0413 5 24.5 5C25.9587 5 27.3576 5.57946 28.3891 6.61091C29.4205 7.64236 30 9.04131 30 10.5V14.5H19V10.5ZM10 38.5V18.5H39V38.5H10Z" stroke="#5C1F06"/>
</g>
</g>
<defs>
<filter id="filter0_d_134_76" x="3.5" y="0.5" width="42" height="48.5" filterUnits="userSpaceOnUse" color-interpolation-filters="sRGB">
<feFlood flood-opacity="0" result="BackgroundImageFix"/>
<feColorMatrix in="SourceAlpha" type="matrix" values="0 0 0 0 0 0 0 0 0 0 0 0 0 0 0 0 0 0 127 0" result="hardAlpha"/>
<feOffset dy="4"/>
<feGaussianBlur stdDeviation="1"/>
<feComposite in2="hardAlpha" operator="out"/>
<feColorMatrix type="matrix" values="0 0 0 0 0 0 0 0 0 0 0 0 0 0 0 0 0 0 1 0"/>
<feBlend mode="normal" in2="BackgroundImageFix" result="effect1_dropShadow_134_76"/>
<feBlend mode="normal" in="SourceGraphic" in2="effect1_dropShadow_134_76" result="shape"/>
</filter>
<clipPath id="clip0_134_76">
<rect width="48" height="48" fill="white" transform="translate(0.5)"/>
</clipPath>
</defs>
</svg>
