<svg width="48" height="48" viewBox="0 0 48 48" fill="none" xmlns="http://www.w3.org/2000/svg">
<g clip-path="url(#clip0_134_131)">
<g filter="url(#filter0_d_134_131)">
<path d="M39 6H9C8.20435 6 7.44129 6.31607 6.87868 6.87868C6.31607 7.44129 6 8.20435 6 9V39C6 39.7956 6.31607 40.5587 6.87868 41.1213C7.44129 41.6839 8.20435 42 9 42H39C39.7956 42 40.5587 41.6839 41.1213 41.1213C41.6839 40.5587 42 39.7956 42 39V9C42 8.20435 41.6839 7.44129 41.1213 6.87868C40.5587 6.31607 39.7956 6 39 6ZM39 39H9V9H39V39ZM33 24C33 24.3978 32.842 24.7794 32.5607 25.0607C32.2794 25.342 31.8978 25.5 31.5 25.5H25.5V31.5C25.5 31.8978 25.342 32.2794 25.0607 32.5607C24.7794 32.842 24.3978 33 24 33C23.6022 33 23.2206 32.842 22.9393 32.5607C22.658 32.2794 22.5 31.8978 22.5 31.5V25.5H16.5C16.1022 25.5 15.7206 25.342 15.4393 25.0607C15.158 24.7794 15 24.3978 15 24C15 23.6022 15.158 23.2206 15.4393 22.9393C15.7206 22.658 16.1022 22.5 16.5 22.5H22.5V16.5C22.5 16.1022 22.658 15.7206 22.9393 15.4393C23.2206 15.158 23.6022 15 24 15C24.3978 15 24.7794 15.158 25.0607 15.4393C25.342 15.7206 25.5 16.1022 25.5 16.5V22.5H31.5C31.8978 22.5 32.2794 22.658 32.5607 22.9393C32.842 23.2206 33 23.6022 33 24Z" fill="#FB923C"/>
<path d="M39 5.5H9C8.07174 5.5 7.1815 5.86875 6.52513 6.52513C5.86875 7.1815 5.5 8.07174 5.5 9V39C5.5 39.9283 5.86875 40.8185 6.52513 41.4749C7.1815 42.1312 8.07174 42.5 9 42.5H39C39.9283 42.5 40.8185 42.1312 41.4749 41.4749C42.1312 40.8185 42.5 39.9283 42.5 39V9C42.5 8.07174 42.1312 7.1815 41.4749 6.52513C40.8185 5.86875 39.9283 5.5 39 5.5ZM9.5 38.5V9.5H38.5V38.5H9.5ZM32.9142 25.4142C33.2893 25.0391 33.5 24.5304 33.5 24C33.5 23.4696 33.2893 22.9609 32.9142 22.5858C32.5391 22.2107 32.0304 22 31.5 22H26V16.5C26 15.9696 25.7893 15.4609 25.4142 15.0858C25.0391 14.7107 24.5304 14.5 24 14.5C23.4696 14.5 22.9609 14.7107 22.5858 15.0858C22.2107 15.4609 22 15.9696 22 16.5V22H16.5C15.9696 22 15.4609 22.2107 15.0858 22.5858C14.7107 22.9609 14.5 23.4696 14.5 24C14.5 24.5304 14.7107 25.0391 15.0858 25.4142C15.4609 25.7893 15.9696 26 16.5 26H22V31.5C22 32.0304 22.2107 32.5391 22.5858 32.9142C22.9609 33.2893 23.4696 33.5 24 33.5C24.5304 33.5 25.0391 33.2893 25.4142 32.9142C25.7893 32.5391 26 32.0304 26 31.5V26H31.5C32.0304 26 32.5391 25.7893 32.9142 25.4142Z" stroke="#5C1F06"/>
</g>
</g>
<defs>
<filter id="filter0_d_134_131" x="3" y="5" width="42" height="44" filterUnits="userSpaceOnUse" color-interpolation-filters="sRGB">
<feFlood flood-opacity="0" result="BackgroundImageFix"/>
<feColorMatrix in="SourceAlpha" type="matrix" values="0 0 0 0 0 0 0 0 0 0 0 0 0 0 0 0 0 0 127 0" result="hardAlpha"/>
<feOffset dy="4"/>
<feGaussianBlur stdDeviation="1"/>
<feComposite in2="hardAlpha" operator="out"/>
<feColorMatrix type="matrix" values="0 0 0 0 0 0 0 0 0 0 0 0 0 0 0 0 0 0 1 0"/>
<feBlend mode="normal" in2="BackgroundImageFix" result="effect1_dropShadow_134_131"/>
<feBlend mode="normal" in="SourceGraphic" in2="effect1_dropShadow_134_131" result="shape"/>
</filter>
<clipPath id="clip0_134_131">
<rect width="48" height="48" fill="white"/>
</clipPath>
</defs>
</svg>
