<svg width="54" height="56" viewBox="0 0 54 56" fill="none" xmlns="http://www.w3.org/2000/svg">
<g filter="url(#filter0_d_134_10)">
<path d="M50.4596 45.8501L38.9175 34.3103C42.2628 30.294 43.931 25.1425 43.575 19.9276C43.2189 14.7126 40.8661 9.83571 37.0059 6.31134C33.1457 2.78696 28.0753 0.886486 22.8496 1.00525C17.6239 1.12401 12.6451 3.25287 8.94898 6.94898C5.25287 10.6451 3.12401 15.6239 3.00525 20.8496C2.88649 26.0753 4.78696 31.1457 8.31134 35.0059C11.8357 38.8661 16.7126 41.2189 21.9276 41.575C27.1425 41.931 32.294 40.2628 36.3103 36.9175L47.8501 48.4596C48.0214 48.6309 48.2248 48.7668 48.4487 48.8595C48.6726 48.9523 48.9125 49 49.1548 49C49.3971 49 49.6371 48.9523 49.8609 48.8595C50.0848 48.7668 50.2882 48.6309 50.4596 48.4596C50.6309 48.2882 50.7668 48.0848 50.8595 47.8609C50.9523 47.6371 51 47.3971 51 47.1548C51 46.9125 50.9523 46.6726 50.8595 46.4487C50.7668 46.2248 50.6309 46.0214 50.4596 45.8501ZM6.73926 21.3367C6.73926 18.054 7.71268 14.8451 9.53643 12.1156C11.3602 9.38621 13.9523 7.25888 16.9851 6.00266C20.0179 4.74645 23.3551 4.41776 26.5746 5.05818C29.7942 5.69859 32.7516 7.27934 35.0728 9.60052C37.394 11.9217 38.9747 14.8791 39.6151 18.0987C40.2555 21.3182 39.9269 24.6554 38.6706 27.6882C37.4144 30.721 35.2871 33.3131 32.5577 35.1369C29.8282 36.9606 26.6193 37.934 23.3367 37.934C18.9362 37.9292 14.7175 36.1789 11.6059 33.0674C8.49436 29.9558 6.74414 25.7371 6.73926 21.3367Z" fill="#FB923C"/>
<path d="M50.8131 45.4965L50.8131 45.4965L39.5903 34.2759C42.825 30.2144 44.4282 25.0847 44.0738 19.8935C43.709 14.5502 41.2982 9.55322 37.343 5.94209C33.3878 2.33095 28.1926 0.383691 22.8382 0.505378C17.4838 0.627065 12.3825 2.80833 8.59542 6.59542C4.80833 10.3825 2.62706 15.4838 2.50538 20.8382C2.38369 26.1926 4.33095 31.3878 7.94209 35.343C11.5532 39.2982 16.5502 41.709 21.8935 42.0738C27.0847 42.4282 32.2144 40.825 36.2759 37.5903L47.4965 48.8131L47.4965 48.8131C47.7143 49.0309 47.9728 49.2036 48.2574 49.3215C48.5419 49.4393 48.8468 49.5 49.1548 49.5C49.4628 49.5 49.7678 49.4393 50.0523 49.3215C50.3368 49.2036 50.5953 49.0309 50.8131 48.8131C51.0309 48.5953 51.2036 48.3368 51.3215 48.0523C51.4393 47.7678 51.5 47.4628 51.5 47.1548C51.5 46.8468 51.4393 46.5419 51.3215 46.2574C51.2036 45.9728 51.0309 45.7143 50.8131 45.4965ZM7.23926 21.3365C7.23929 18.1528 8.18338 15.0406 9.95216 12.3934C11.721 9.74622 14.235 7.68298 17.1764 6.4646C20.1179 5.24623 23.3545 4.92745 26.4771 5.54857C29.5997 6.16969 32.468 7.70282 34.7192 9.95408C36.9705 12.2053 38.5036 15.0736 39.1247 18.1962C39.7459 21.3188 39.4271 24.5554 38.2087 27.4969C36.9903 30.4383 34.9271 32.9523 32.2799 34.7211C29.6327 36.49 26.5204 37.434 23.3367 37.434C19.0689 37.4292 14.9773 35.7316 11.9595 32.7138C8.94164 29.696 7.24411 25.6044 7.23926 21.3365Z" stroke="#5C1F06"/>
</g>
<defs>
<filter id="filter0_d_134_10" x="0" y="0" width="54" height="56" filterUnits="userSpaceOnUse" color-interpolation-filters="sRGB">
<feFlood flood-opacity="0" result="BackgroundImageFix"/>
<feColorMatrix in="SourceAlpha" type="matrix" values="0 0 0 0 0 0 0 0 0 0 0 0 0 0 0 0 0 0 127 0" result="hardAlpha"/>
<feOffset dy="4"/>
<feGaussianBlur stdDeviation="1"/>
<feComposite in2="hardAlpha" operator="out"/>
<feColorMatrix type="matrix" values="0 0 0 0 0 0 0 0 0 0 0 0 0 0 0 0 0 0 1 0"/>
<feBlend mode="normal" in2="BackgroundImageFix" result="effect1_dropShadow_134_10"/>
<feBlend mode="normal" in="SourceGraphic" in2="effect1_dropShadow_134_10" result="shape"/>
</filter>
</defs>
</svg>
