<svg width="128" height="128" viewBox="0 0 128 128" fill="none" xmlns="http://www.w3.org/2000/svg">
<g clip-path="url(#clip0_98_224)">
<g filter="url(#filter0_d_98_224)">
<path d="M120 75.9998H99.775C99.9226 74.6716 99.9977 73.3362 100 71.9998C100 62.452 96.2072 53.2953 89.4558 46.544C82.7045 39.7927 73.5478 35.9998 64 35.9998C54.4522 35.9998 45.2955 39.7927 38.5442 46.544C31.7928 53.2953 28 62.452 28 71.9998C28.0023 73.3362 28.0774 74.6716 28.225 75.9998H8C6.93913 75.9998 5.92172 76.4212 5.17157 77.1714C4.42143 77.9215 4 78.939 4 79.9998C4 81.0607 4.42143 82.0781 5.17157 82.8282C5.92172 83.5784 6.93913 83.9998 8 83.9998H120C121.061 83.9998 122.078 83.5784 122.828 82.8282C123.579 82.0781 124 81.0607 124 79.9998C124 78.939 123.579 77.9215 122.828 77.1714C122.078 76.4212 121.061 75.9998 120 75.9998ZM36 71.9998C35.9927 68.1494 36.7796 64.3388 38.3115 60.8062C39.8435 57.2736 42.0876 54.0949 44.9036 51.4689C47.7196 48.8428 51.047 46.8258 54.6778 45.5438C58.3086 44.2618 62.1648 43.7425 66.0054 44.0183C69.846 44.2941 73.5884 45.359 76.9988 47.1466C80.4092 48.9342 83.4142 51.4059 85.8261 54.4074C88.238 57.4088 90.005 60.8755 91.0165 64.5907C92.028 68.306 92.2624 72.1899 91.705 75.9998H36.295C36.1014 74.6752 36.0028 73.3385 36 71.9998ZM108 99.9998C108 101.061 107.579 102.078 106.828 102.828C106.078 103.578 105.061 104 104 104H24C22.9391 104 21.9217 103.578 21.1716 102.828C20.4214 102.078 20 101.061 20 99.9998C20 98.939 20.4214 97.9215 21.1716 97.1714C21.9217 96.4212 22.9391 95.9998 24 95.9998H104C105.061 95.9998 106.078 96.4212 106.828 97.1714C107.579 97.9215 108 98.939 108 99.9998ZM36.42 21.7898C35.9453 20.8403 35.8671 19.7412 36.2028 18.7341C36.5385 17.727 37.2605 16.8946 38.21 16.4198C39.1595 15.9451 40.2587 15.867 41.2657 16.2027C42.2728 16.5383 43.1053 17.2603 43.58 18.2098L47.58 26.2098C47.8151 26.68 47.9552 27.1918 47.9925 27.7161C48.0298 28.2404 47.9634 28.7669 47.7972 29.2655C47.6309 29.7642 47.3681 30.2252 47.0238 30.6223C46.6794 31.0194 46.2601 31.3448 45.79 31.5798C45.3199 31.8149 44.808 31.9551 44.2837 31.9923C43.7594 32.0296 43.2329 31.9632 42.7343 31.797C42.2356 31.6308 41.7746 31.368 41.3775 31.0236C40.9804 30.6792 40.6551 30.26 40.42 29.7898L36.42 21.7898ZM8.42 46.2098C8.65525 45.7399 8.98079 45.3209 9.37804 44.9768C9.77528 44.6328 10.2364 44.3704 10.7351 44.2046C11.2338 44.0388 11.7603 43.9729 12.2845 44.0107C12.8086 44.0485 13.3202 44.1892 13.79 44.4248L21.79 48.4248C22.7388 48.8996 23.4602 49.7318 23.7954 50.7384C24.1306 51.745 24.0522 52.8435 23.5775 53.7923C23.1028 54.7411 22.2706 55.4625 21.264 55.7977C20.2574 56.1329 19.1588 56.0546 18.21 55.5798L10.21 51.5798C9.73963 51.345 9.32016 51.0198 8.97559 50.6227C8.63101 50.2257 8.36808 49.7646 8.20183 49.2659C8.03558 48.7671 7.96928 48.2405 8.00672 47.7161C8.04415 47.1917 8.18459 46.6799 8.42 46.2098ZM104.42 53.7898C103.946 52.841 103.869 51.7428 104.204 50.7367C104.54 49.7306 105.261 48.899 106.21 48.4248L114.21 44.4248C114.68 44.1898 115.191 44.0495 115.715 44.0121C116.239 43.9747 116.766 44.0409 117.264 44.2069C117.762 44.3729 118.223 44.6354 118.62 44.9795C119.017 45.3236 119.342 45.7425 119.577 46.2123C119.813 46.6821 119.953 47.1936 119.99 47.7176C120.028 48.2416 119.961 48.7679 119.795 49.2663C119.629 49.7647 119.367 50.2255 119.023 50.6225C118.679 51.0195 118.26 51.3448 117.79 51.5798L109.79 55.5798C109.32 55.8152 108.808 55.9557 108.284 55.9931C107.759 56.0305 107.233 55.9642 106.734 55.798C106.235 55.6317 105.774 55.3688 105.377 55.0242C104.98 54.6797 104.655 54.2602 104.42 53.7898ZM80.42 26.2098L84.42 18.2098C84.8947 17.2603 85.7272 16.5383 86.7343 16.2027C87.7413 15.867 88.8405 15.9451 89.79 16.4198C90.7395 16.8946 91.4615 17.727 91.7972 18.7341C92.1329 19.7412 92.0547 20.8403 91.58 21.7898L87.58 29.7898C87.1053 30.7393 86.2728 31.4613 85.2657 31.797C84.2587 32.1327 83.1595 32.0546 82.21 31.5798C81.2605 31.1051 80.5385 30.2726 80.2028 29.2655C79.8671 28.2585 79.9453 27.1593 80.42 26.2098Z" fill="#FB923C"/>
<path d="M22.5055 46.9937L22.5059 46.9939C23.8343 47.6586 24.8441 48.8236 25.3134 50.2328C25.7827 51.642 25.673 53.18 25.0084 54.5083C24.3438 55.8366 23.1787 56.8465 21.7695 57.3158C20.3603 57.785 18.8224 57.6753 17.4941 57.0107L9.49538 53.0114C9.49507 53.0112 9.49476 53.0111 9.49446 53.0109C8.83631 52.6822 8.24938 52.2271 7.7672 51.6714C7.28478 51.1156 6.91668 50.4701 6.68394 49.7718C6.45119 49.0736 6.35837 48.3363 6.41078 47.6022C6.46318 46.8681 6.65976 46.1516 6.98926 45.4936L22.5055 46.9937ZM22.5055 46.9937L14.5073 42.9946L22.5055 46.9937ZM101.6 72.0025V71.9998C101.6 62.0277 97.6386 52.464 90.5872 45.4126C83.5358 38.3612 73.9721 34.3998 64 34.3998C54.0279 34.3998 44.4642 38.3612 37.4128 45.4126C30.3614 52.464 26.4 62.0277 26.4 71.9998L26.4 72.0025C26.4014 72.8024 26.4277 73.6019 26.479 74.3998H8C6.51479 74.3998 5.09041 74.9898 4.0402 76.04C2.99 77.0902 2.4 78.5146 2.4 79.9998C2.4 81.485 2.99 82.9094 4.0402 83.9596C5.09041 85.0098 6.51479 85.5998 8 85.5998H120C121.485 85.5998 122.91 85.0098 123.96 83.9596C125.01 82.9094 125.6 81.485 125.6 79.9998C125.6 78.5146 125.01 77.0902 123.96 76.04C122.91 74.9898 121.485 74.3998 120 74.3998H101.521C101.572 73.6019 101.599 72.8024 101.6 72.0025ZM118.506 53.0109L118.506 53.0107C119.164 52.6816 119.75 52.2262 120.232 51.6705C120.714 51.1147 121.081 50.4696 121.313 49.7718C121.546 49.074 121.638 48.3373 121.586 47.6038C121.534 46.8702 121.337 46.1541 121.008 45.4964C120.679 44.8387 120.224 44.2522 119.668 43.7705C119.112 43.2888 118.467 42.9213 117.769 42.6889C117.072 42.4565 116.335 42.3639 115.601 42.4162C114.868 42.4685 114.152 42.6648 113.494 42.9939L105.495 46.9937C105.495 46.9937 105.494 46.9937 105.494 46.9937C104.166 47.6577 103.156 48.8219 102.686 50.2303C102.216 51.6388 102.325 53.1763 102.989 54.5047C103.317 55.1631 103.773 55.7503 104.328 56.2326C104.884 56.715 105.53 57.0831 106.228 57.3159C106.926 57.5486 107.663 57.6414 108.398 57.589C109.132 57.5366 109.848 57.34 110.506 57.0104L118.506 53.0109ZM37.6 71.9968C37.5931 68.3663 38.335 64.7735 39.7794 61.4427C41.2239 58.112 43.3397 55.115 45.9948 52.639C48.6499 50.163 51.7872 48.2612 55.2105 47.0525C58.6338 45.8438 62.2697 45.3542 65.8908 45.6142C69.5119 45.8742 73.0405 46.8783 76.256 48.5637C79.4715 50.2491 82.3048 52.5796 84.5789 55.4096C86.853 58.2396 88.519 61.5081 89.4727 65.0111C90.3056 68.0702 90.5797 71.2505 90.2857 74.3998H37.7144C37.6399 73.6012 37.6017 72.7993 37.6 71.9968ZM107.96 103.96C109.01 102.909 109.6 101.485 109.6 99.9998C109.6 98.5146 109.01 97.0902 107.96 96.04C106.91 94.9898 105.485 94.3998 104 94.3998H24C22.5148 94.3998 21.0904 94.9898 20.0402 96.04C18.99 97.0902 18.4 98.5146 18.4 99.9998C18.4 101.485 18.99 102.909 20.0402 103.96C21.0904 105.01 22.5148 105.6 24 105.6H104C105.485 105.6 106.91 105.01 107.96 103.96ZM34.6849 18.2281C34.2151 19.6378 34.3244 21.1763 34.9889 22.5054L38.9889 30.5054C39.3179 31.1634 39.7734 31.7502 40.3292 32.2323C40.885 32.7144 41.5303 33.0822 42.2283 33.3149C42.9263 33.5475 43.6633 33.6404 44.3972 33.5883C45.131 33.5361 45.8475 33.3399 46.5055 33.0109C47.1636 32.6819 47.7504 32.2264 48.2325 31.6706C48.7145 31.1148 49.0824 30.4695 49.3151 29.7715C49.5477 29.0735 49.6406 28.3365 49.5885 27.6027C49.5363 26.8688 49.3401 26.1523 49.0111 25.4943L45.0111 17.4943C44.3466 16.1653 43.1813 15.1546 41.7717 14.6848C40.362 14.2149 38.8235 14.3242 37.4945 14.9887C36.1654 15.6532 35.1548 16.8185 34.6849 18.2281ZM8.33051 43.7674C7.77444 44.2491 7.31871 44.8355 6.98938 45.4934L14.5055 42.9937C13.8483 42.6644 13.1327 42.4677 12.3995 42.4149C11.6657 42.362 10.9286 42.4542 10.2304 42.6863C9.53226 42.9183 8.88665 43.2857 8.33051 43.7674ZM82.9889 17.4943L78.9889 25.4943C78.3244 26.8233 78.2151 28.3619 78.6849 29.7715C79.1548 31.1811 80.1654 32.3464 81.4945 33.0109C82.8235 33.6754 84.362 33.7848 85.7717 33.3149C87.1813 32.845 88.3466 31.8344 89.0111 30.5054L93.0111 22.5054C93.6756 21.1763 93.7849 19.6378 93.3151 18.2281C92.8452 16.8185 91.8346 15.6532 90.5055 14.9887C89.1765 14.3242 87.638 14.2149 86.2283 14.6848C84.8187 15.1546 83.6534 16.1653 82.9889 17.4943Z" stroke="#5C1F06" stroke-width="3.2"/>
</g>
</g>
<defs>
<filter id="filter0_d_98_224" x="-5.6" y="12.7972" width="139.2" height="113.603" filterUnits="userSpaceOnUse" color-interpolation-filters="sRGB">
<feFlood flood-opacity="0" result="BackgroundImageFix"/>
<feColorMatrix in="SourceAlpha" type="matrix" values="0 0 0 0 0 0 0 0 0 0 0 0 0 0 0 0 0 0 127 0" result="hardAlpha"/>
<feOffset dy="12.8"/>
<feGaussianBlur stdDeviation="3.2"/>
<feComposite in2="hardAlpha" operator="out"/>
<feColorMatrix type="matrix" values="0 0 0 0 0 0 0 0 0 0 0 0 0 0 0 0 0 0 1 0"/>
<feBlend mode="normal" in2="BackgroundImageFix" result="effect1_dropShadow_98_224"/>
<feBlend mode="normal" in="SourceGraphic" in2="effect1_dropShadow_98_224" result="shape"/>
</filter>
<clipPath id="clip0_98_224">
<rect width="128" height="128" fill="white"/>
</clipPath>
</defs>
</svg>
