<svg width="48" height="48" viewBox="0 0 48 48" fill="none" xmlns="http://www.w3.org/2000/svg">
<g clip-path="url(#clip0_145_131)">
<g filter="url(#filter0_d_145_131)">
<path d="M40.5 9H33V7.5C33 6.30653 32.5259 5.16193 31.682 4.31802C30.8381 3.47411 29.6935 3 28.5 3H19.5C18.3065 3 17.1619 3.47411 16.318 4.31802C15.4741 5.16193 15 6.30653 15 7.5V9H7.5C7.10218 9 6.72064 9.15804 6.43934 9.43934C6.15804 9.72064 6 10.1022 6 10.5C6 10.8978 6.15804 11.2794 6.43934 11.5607C6.72064 11.842 7.10218 12 7.5 12H9V39C9 39.7956 9.31607 40.5587 9.87868 41.1213C10.4413 41.6839 11.2044 42 12 42H36C36.7956 42 37.5587 41.6839 38.1213 41.1213C38.6839 40.5587 39 39.7956 39 39V12H40.5C40.8978 12 41.2794 11.842 41.5607 11.5607C41.842 11.2794 42 10.8978 42 10.5C42 10.1022 41.842 9.72064 41.5607 9.43934C41.2794 9.15804 40.8978 9 40.5 9ZM18 7.5C18 7.10218 18.158 6.72064 18.4393 6.43934C18.7206 6.15804 19.1022 6 19.5 6H28.5C28.8978 6 29.2794 6.15804 29.5607 6.43934C29.842 6.72064 30 7.10218 30 7.5V9H18V7.5ZM36 39H12V12H36V39ZM21 19.5V31.5C21 31.8978 20.842 32.2794 20.5607 32.5607C20.2794 32.842 19.8978 33 19.5 33C19.1022 33 18.7206 32.842 18.4393 32.5607C18.158 32.2794 18 31.8978 18 31.5V19.5C18 19.1022 18.158 18.7206 18.4393 18.4393C18.7206 18.158 19.1022 18 19.5 18C19.8978 18 20.2794 18.158 20.5607 18.4393C20.842 18.7206 21 19.1022 21 19.5ZM30 19.5V31.5C30 31.8978 29.842 32.2794 29.5607 32.5607C29.2794 32.842 28.8978 33 28.5 33C28.1022 33 27.7206 32.842 27.4393 32.5607C27.158 32.2794 27 31.8978 27 31.5V19.5C27 19.1022 27.158 18.7206 27.4393 18.4393C27.7206 18.158 28.1022 18 28.5 18C28.8978 18 29.2794 18.158 29.5607 18.4393C29.842 18.7206 30 19.1022 30 19.5Z" fill="#FB923C"/>
<path d="M40.5 8.5H33.5V7.5C33.5 6.17392 32.9732 4.90215 32.0355 3.96447C31.0979 3.02678 29.8261 2.5 28.5 2.5H19.5C18.1739 2.5 16.9021 3.02678 15.9645 3.96447C15.0268 4.90215 14.5 6.17392 14.5 7.5V8.5H7.5C6.96957 8.5 6.46086 8.71071 6.08579 9.08579C5.71071 9.46086 5.5 9.96957 5.5 10.5C5.5 11.0304 5.71071 11.5391 6.08579 11.9142C6.46086 12.2893 6.96957 12.5 7.5 12.5H8.5V39C8.5 39.9283 8.86875 40.8185 9.52513 41.4749C10.1815 42.1312 11.0717 42.5 12 42.5H36C36.9283 42.5 37.8185 42.1312 38.4749 41.4749C39.1312 40.8185 39.5 39.9283 39.5 39V12.5H40.5C41.0304 12.5 41.5391 12.2893 41.9142 11.9142C42.2893 11.5391 42.5 11.0304 42.5 10.5C42.5 9.96957 42.2893 9.46086 41.9142 9.08579C41.5391 8.71071 41.0304 8.5 40.5 8.5ZM18.5 7.5C18.5 7.23478 18.6054 6.98043 18.7929 6.79289C18.9804 6.60536 19.2348 6.5 19.5 6.5H28.5C28.7652 6.5 29.0196 6.60536 29.2071 6.79289C29.3946 6.98043 29.5 7.23478 29.5 7.5V8.5H18.5V7.5ZM35.5 38.5H12.5V12.5H35.5V38.5ZM21.5 31.5V19.5C21.5 18.9696 21.2893 18.4609 20.9142 18.0858C20.5391 17.7107 20.0304 17.5 19.5 17.5C18.9696 17.5 18.4609 17.7107 18.0858 18.0858C17.7107 18.4609 17.5 18.9696 17.5 19.5V31.5C17.5 32.0304 17.7107 32.5391 18.0858 32.9142C18.4609 33.2893 18.9696 33.5 19.5 33.5C20.0304 33.5 20.5391 33.2893 20.9142 32.9142C21.2893 32.5391 21.5 32.0304 21.5 31.5ZM30.5 31.5V19.5C30.5 18.9696 30.2893 18.4609 29.9142 18.0858C29.5391 17.7107 29.0304 17.5 28.5 17.5C27.9696 17.5 27.4609 17.7107 27.0858 18.0858C26.7107 18.4609 26.5 18.9696 26.5 19.5V31.5C26.5 32.0304 26.7107 32.5391 27.0858 32.9142C27.4609 33.2893 27.9696 33.5 28.5 33.5C29.0304 33.5 29.5391 33.2893 29.9142 32.9142C30.2893 32.5391 30.5 32.0304 30.5 31.5Z" stroke="#5C1F06"/>
</g>
</g>
<defs>
<filter id="filter0_d_145_131" x="3" y="2" width="42" height="47" filterUnits="userSpaceOnUse" color-interpolation-filters="sRGB">
<feFlood flood-opacity="0" result="BackgroundImageFix"/>
<feColorMatrix in="SourceAlpha" type="matrix" values="0 0 0 0 0 0 0 0 0 0 0 0 0 0 0 0 0 0 127 0" result="hardAlpha"/>
<feOffset dy="4"/>
<feGaussianBlur stdDeviation="1"/>
<feComposite in2="hardAlpha" operator="out"/>
<feColorMatrix type="matrix" values="0 0 0 0 0 0 0 0 0 0 0 0 0 0 0 0 0 0 1 0"/>
<feBlend mode="normal" in2="BackgroundImageFix" result="effect1_dropShadow_145_131"/>
<feBlend mode="normal" in="SourceGraphic" in2="effect1_dropShadow_145_131" result="shape"/>
</filter>
<clipPath id="clip0_145_131">
<rect width="48" height="48" fill="white"/>
</clipPath>
</defs>
</svg>
