<svg width="48" height="48" viewBox="0 0 48 48" fill="none" xmlns="http://www.w3.org/2000/svg">
<g clip-path="url(#clip0_153_10)">
<g filter="url(#filter0_d_153_10)">
<path d="M35.1713 27.1575L29.1713 24.1575C28.9351 24.0398 28.672 23.9865 28.4087 24.003C28.1453 24.0194 27.8909 24.1051 27.6713 24.2512L24.9169 26.0887C23.6525 25.3937 22.612 24.3532 21.9169 23.0887L23.7544 20.3344C23.9006 20.1147 23.9862 19.8603 24.0027 19.597C24.0191 19.3336 23.9658 19.0706 23.8481 18.8344L20.8481 12.8344C20.7238 12.5833 20.5316 12.372 20.2933 12.2245C20.055 12.0771 19.7802 11.9993 19.5 12C17.5109 12 15.6032 12.7902 14.1967 14.1967C12.7902 15.6032 12 17.5109 12 19.5C12.005 23.8745 13.745 28.0685 16.8382 31.1618C19.9315 34.2551 24.1255 35.995 28.5 36C29.4849 36 30.4602 35.806 31.3701 35.4291C32.2801 35.0522 33.1069 34.4997 33.8033 33.8033C34.4998 33.1069 35.0522 32.2801 35.4291 31.3701C35.806 30.4602 36 29.4849 36 28.5C36.0002 28.2213 35.9228 27.9481 35.7764 27.711C35.63 27.4739 35.4205 27.2822 35.1713 27.1575ZM28.5 33C24.9208 32.996 21.4893 31.5724 18.9585 29.0416C16.4276 26.5107 15.004 23.0792 15 19.5C14.9997 18.4596 15.3599 17.4512 16.0194 16.6465C16.6788 15.8418 17.5967 15.2904 18.6169 15.0863L20.7694 19.3987L18.9375 22.125C18.8006 22.3303 18.7165 22.5663 18.6926 22.8119C18.6688 23.0575 18.7059 23.3053 18.8006 23.5331C19.8739 26.0838 21.903 28.113 24.4538 29.1863C24.6823 29.2852 24.9319 29.3258 25.18 29.3042C25.4282 29.2826 25.667 29.1995 25.875 29.0625L28.6144 27.2362L32.9269 29.3888C32.7211 30.4101 32.1673 31.3284 31.36 31.987C30.5527 32.6456 29.5419 33.0036 28.5 33ZM24 4.5C20.6334 4.49927 17.3239 5.37017 14.3937 7.02793C11.4636 8.68569 9.01248 11.0738 7.27909 13.9599C5.5457 16.846 4.58904 20.1317 4.50224 23.4972C4.41544 26.8627 5.20145 30.1934 6.78376 33.165L4.65564 39.5494C4.47936 40.078 4.45378 40.6452 4.58176 41.1875C4.70974 41.7298 4.98623 42.2258 5.38024 42.6198C5.77424 43.0138 6.27019 43.2903 6.8125 43.4183C7.35481 43.5462 7.92205 43.5207 8.45064 43.3444L14.835 41.2163C17.4502 42.6072 20.3479 43.3841 23.3082 43.488C26.2685 43.5919 29.2135 43.02 31.9198 41.8157C34.626 40.6115 37.0224 38.8066 38.9269 36.5379C40.8314 34.2693 42.1941 31.5965 42.9115 28.7226C43.6289 25.8487 43.6821 22.8491 43.0671 19.9516C42.4522 17.054 41.1852 14.3346 39.3623 11.9998C37.5395 9.66506 35.2087 7.77623 32.5468 6.47673C29.885 5.17723 26.9621 4.50122 24 4.5ZM24 40.5C21.0993 40.502 18.2496 39.7381 15.7388 38.2856C15.5549 38.179 15.3505 38.1127 15.1391 38.091C14.9277 38.0694 14.7141 38.0929 14.5125 38.16L7.50001 40.5L9.83814 33.4875C9.90554 33.286 9.92936 33.0725 9.90802 32.8611C9.88669 32.6497 9.82069 32.4452 9.71439 32.2612C7.89559 29.1167 7.16534 25.4598 7.63694 21.8579C8.10854 18.256 9.75563 14.9104 12.3227 12.3401C14.8897 9.76981 18.2333 8.11851 21.8346 7.64236C25.4359 7.1662 29.0937 7.89183 32.2405 9.70666C35.3873 11.5215 37.8473 14.3241 39.2388 17.6797C40.6303 21.0352 40.8755 24.7562 39.9365 28.2654C38.9974 31.7746 36.9265 34.8758 34.045 37.0879C31.1636 39.3 27.6327 40.4994 24 40.5Z" fill="#FB923C"/>
<path d="M35.3949 26.7103L35.395 26.7104C35.7273 26.8766 36.0067 27.1322 36.2019 27.4483C36.397 27.7645 36.5003 28.1288 36.5 28.5004M35.3949 26.7103L19.5 12V11.5C17.3783 11.5 15.3435 12.3429 13.8432 13.8431C12.3429 15.3434 11.5 17.3783 11.5 19.5L11.5 19.5006C11.5051 24.0075 13.2978 28.3284 16.4847 31.5153C19.6716 34.7022 23.9925 36.4949 28.4994 36.5H28.5C29.5506 36.5 30.5909 36.2931 31.5615 35.891C32.5321 35.489 33.414 34.8997 34.1569 34.1569C34.8997 33.414 35.489 32.5321 35.8911 31.5615C36.293 30.591 36.5 29.5508 36.5 28.5004M35.3949 26.7103L29.3949 23.7103L29.3943 23.71C29.0794 23.5531 28.7286 23.482 28.3775 23.5039C28.0263 23.5259 27.6872 23.6401 27.3943 23.835L27.3938 23.8353L24.8978 25.5004L35.3949 26.7103ZM36.5 28.5004L36 28.5H36.5C36.5 28.5001 36.5 28.5002 36.5 28.5004ZM21.2957 12.6114L21.2954 12.6108L20.8481 12.8344L21.2957 12.6114ZM28.5017 32.5L28.5006 32.5C25.0538 32.4962 21.7493 31.1253 19.312 28.688C16.8748 26.2508 15.5038 22.9462 15.5 19.4994C15.4999 18.5748 15.82 17.6786 16.4061 16.9634C16.9121 16.3459 17.5894 15.8963 18.3485 15.6681L20.192 19.3615L18.5225 21.8461L18.5215 21.8477C18.339 22.1214 18.2268 22.436 18.195 22.7635C18.1631 23.091 18.2126 23.4213 18.339 23.7252L18.3398 23.727C19.4634 26.3975 21.5876 28.5221 24.2577 29.6462C24.5617 29.7774 24.8935 29.831 25.2234 29.8023C25.5543 29.7735 25.8727 29.6627 26.15 29.4801L26.1524 29.4785L28.6505 27.8131L32.3446 29.6569C32.115 30.4168 31.6635 31.0942 31.044 31.5995C30.3263 32.1849 29.4278 32.5032 28.5017 32.5ZM24.0002 4L24.0001 4C20.5472 3.99925 17.1528 4.89248 14.1475 6.59275C11.1422 8.29302 8.62829 10.7424 6.85045 13.7025C5.07262 16.6626 4.09143 20.0325 4.00241 23.4843C3.91524 26.8642 4.68634 30.2098 6.24205 33.209L4.18132 39.3912C4.18131 39.3912 4.1813 39.3912 4.1813 39.3913C3.97566 40.0079 3.94582 40.6697 4.09513 41.3024C4.24444 41.9351 4.56701 42.5137 5.02668 42.9733C5.48635 43.433 6.06496 43.7556 6.69766 43.9049C7.33033 44.0542 7.99209 44.0244 8.60875 43.8187C8.60878 43.8187 8.6088 43.8187 8.60882 43.8187L14.7911 41.7579C17.4232 43.1217 20.3263 43.8837 23.2907 43.9877C26.3268 44.0942 29.3474 43.5077 32.123 42.2726C34.8987 41.0374 37.3565 39.1862 39.3098 36.8594C41.2632 34.5326 42.6608 31.7913 43.3966 28.8437C44.1324 25.8961 44.187 22.8196 43.5562 19.8478C42.9255 16.8759 41.626 14.0868 39.7564 11.6921C37.8868 9.29749 35.4963 7.36023 32.7662 6.02741C30.0361 4.69459 27.0383 4.00125 24.0002 4ZM23.9999 40H23.9997C21.1872 40.0019 18.4241 39.2613 15.9896 37.8531C15.7445 37.7109 15.472 37.6225 15.1901 37.5936C14.9082 37.5648 14.6234 37.5961 14.3546 37.6856L14.3542 37.6857L8.29081 39.709L10.3123 33.6461C10.4022 33.3774 10.4339 33.0927 10.4055 32.8109C10.3771 32.529 10.2891 32.2564 10.1473 32.0111L10.1472 32.0109C8.38352 28.9617 7.6754 25.4156 8.13271 21.9228C8.59002 18.4301 10.1872 15.1858 12.6765 12.6934C15.1657 10.201 18.4079 8.59976 21.9001 8.13804C25.3923 7.67632 28.9392 8.37995 31.9907 10.1398C35.0422 11.8996 37.4276 14.6173 38.7769 17.8712C40.1263 21.1251 40.3641 24.7333 39.4534 28.1362C38.5428 31.539 36.5347 34.5462 33.7406 36.6913C30.9464 38.8364 27.5225 39.9994 23.9999 40Z" stroke="#5C1F06"/>
</g>
</g>
<defs>
<filter id="filter0_d_153_10" x="1.49576" y="3.5" width="44.9962" height="47" filterUnits="userSpaceOnUse" color-interpolation-filters="sRGB">
<feFlood flood-opacity="0" result="BackgroundImageFix"/>
<feColorMatrix in="SourceAlpha" type="matrix" values="0 0 0 0 0 0 0 0 0 0 0 0 0 0 0 0 0 0 127 0" result="hardAlpha"/>
<feOffset dy="4"/>
<feGaussianBlur stdDeviation="1"/>
<feComposite in2="hardAlpha" operator="out"/>
<feColorMatrix type="matrix" values="0 0 0 0 0 0 0 0 0 0 0 0 0 0 0 0 0 0 1 0"/>
<feBlend mode="normal" in2="BackgroundImageFix" result="effect1_dropShadow_153_10"/>
<feBlend mode="normal" in="SourceGraphic" in2="effect1_dropShadow_153_10" result="shape"/>
</filter>
<clipPath id="clip0_153_10">
<rect width="48" height="48" fill="white"/>
</clipPath>
</defs>
</svg>
